<svg width="117" height="201" viewBox="0 0 117 201" fill="none" xmlns="http://www.w3.org/2000/svg">
<circle cx="3" cy="3" r="3" transform="matrix(0.707107 -0.707107 -0.707107 -0.707107 32.5283 200.111)" fill="#CDB8B1"/>
<circle cx="3" cy="3" r="3" transform="matrix(0.707107 -0.707107 -0.707107 -0.707107 9.24316 149.418)" fill="#CDB8B1"/>
<circle cx="3" cy="3" r="3" transform="matrix(0.707107 -0.707107 -0.707107 -0.707107 59.7388 151.881)" fill="#CDB8B1"/>
<circle cx="3" cy="3" r="3" transform="matrix(0.707107 -0.707107 -0.707107 -0.707107 111.017 123.037)" fill="#CDB8B1"/>
<circle cx="3" cy="3" r="3" transform="matrix(0.707107 -0.707107 -0.707107 -0.707107 55.8643 114.552)" fill="#CDB8B1"/>
<circle cx="3" cy="3" r="3" transform="matrix(0.707107 -0.707107 -0.707107 -0.707107 75.6606 35.3555)" fill="#CDB8B1"/>
<circle cx="3" cy="3" r="3" transform="matrix(0.707107 -0.707107 -0.707107 -0.707107 112.431 93.3379)" fill="#CDB8B1"/>
<circle cx="3" cy="3" r="3" transform="matrix(0.707107 -0.707107 -0.707107 -0.707107 43.1099 69.9805)" fill="#CDB8B1"/>
<circle cx="3" cy="3" r="3" transform="matrix(0.707107 -0.707107 -0.707107 -0.707107 24.751 8.48535)" fill="#CDB8B1"/>
<circle cx="3" cy="3" r="3" transform="matrix(0.707107 -0.707107 -0.707107 -0.707107 4.24268 81.3174)" fill="#CDB8B1"/>
</svg>
