<svg width="168" height="171" viewBox="0 0 168 171" fill="none" xmlns="http://www.w3.org/2000/svg">
<circle cx="83.5449" cy="87.7471" r="3" fill="#CDB8B1"/>
<circle cx="20.8984" cy="87.7471" r="3" fill="#CDB8B1"/>
<circle cx="3" cy="3" r="3" transform="matrix(-1 0 0 1 149 84.7471)" fill="#CDB8B1"/>
<circle cx="83.5449" cy="133.772" r="3" fill="#CDB8B1"/>
<circle cx="128.931" cy="87.7471" r="3" fill="#CDB8B1"/>
<circle cx="83.5449" cy="41.7217" r="3" fill="#CDB8B1"/>
<circle cx="83.5449" cy="151.032" r="3" fill="#CDB8B1"/>
<circle cx="83.5449" cy="24.4629" r="3" fill="#CDB8B1"/>
<circle cx="107.836" cy="27.6582" r="3" fill="#CDB8B1"/>
<circle cx="107.836" cy="147.836" r="3" fill="#CDB8B1"/>
<circle cx="59.2529" cy="27.6582" r="3" fill="#CDB8B1"/>
<ellipse cx="24.0947" cy="61.1709" rx="3" ry="3" transform="rotate(-90 24.0947 61.1709)" fill="#CDB8B1"/>
<ellipse cx="3" cy="50.3037" rx="3" ry="3" transform="rotate(-90 3 50.3037)" fill="#CDB8B1"/>
<ellipse cx="51.582" cy="3" rx="3" ry="3" transform="rotate(-90 51.582 3)" fill="#CDB8B1"/>
<ellipse cx="118.703" cy="3" rx="3" ry="3" transform="rotate(-90 118.703 3)" fill="#CDB8B1"/>
<ellipse cx="3" cy="117.425" rx="3" ry="3" transform="rotate(-90 3 117.425)" fill="#CDB8B1"/>
<ellipse cx="49.665" cy="165.367" rx="3" ry="3" transform="rotate(-90 49.665 165.367)" fill="#CDB8B1"/>
<ellipse cx="116.785" cy="167.285" rx="3" ry="3" transform="rotate(-90 116.785 167.285)" fill="#CDB8B1"/>
<ellipse cx="164.729" cy="119.342" rx="3" ry="3" transform="rotate(-90 164.729 119.342)" fill="#CDB8B1"/>
<ellipse cx="164.729" cy="52.2217" rx="3" ry="3" transform="rotate(-90 164.729 52.2217)" fill="#CDB8B1"/>
<ellipse cx="3" cy="3" rx="3" ry="3" transform="matrix(0 -1 -1 -4.37114e-08 143.709 64.1709)" fill="#CDB8B1"/>
<ellipse cx="3" cy="3" rx="3" ry="3" transform="matrix(0 -1 -1 -4.37114e-08 128.367 43.7158)" fill="#CDB8B1"/>
<ellipse cx="125.367" cy="132.494" rx="3" ry="3" transform="rotate(90 125.367 132.494)" fill="#CDB8B1"/>
<ellipse cx="3" cy="3" rx="3" ry="3" transform="matrix(0 -1 -1 -4.37114e-08 40.1514 43.7158)" fill="#CDB8B1"/>
<ellipse cx="3" cy="3" rx="3" ry="3" transform="matrix(0 -1 -1 -4.37114e-08 53.5762 55.8613)" fill="#CDB8B1"/>
<ellipse cx="3" cy="3" rx="3" ry="3" transform="matrix(0 -1 -1 -4.37114e-08 116.222 55.8613)" fill="#CDB8B1"/>
<ellipse cx="3" cy="3" rx="3" ry="3" transform="matrix(0 -1 -1 -4.37114e-08 116.222 119.146)" fill="#CDB8B1"/>
<ellipse cx="3" cy="3" rx="3" ry="3" transform="matrix(0 -1 -1 -4.37114e-08 53.5762 119.146)" fill="#CDB8B1"/>
<ellipse cx="37.1514" cy="132.494" rx="3" ry="3" transform="rotate(90 37.1514 132.494)" fill="#CDB8B1"/>
<ellipse cx="24.0947" cy="109.754" rx="3" ry="3" transform="rotate(-90 24.0947 109.754)" fill="#CDB8B1"/>
<ellipse cx="3" cy="3" rx="3" ry="3" transform="matrix(0 -1 -1 -4.37114e-08 143.709 112.754)" fill="#CDB8B1"/>
<circle cx="59.2529" cy="147.836" r="3" fill="#CDB8B1"/>
<ellipse cx="38.1582" cy="85.4619" rx="3" ry="3" transform="rotate(-90 38.1582 85.4619)" fill="#CDB8B1"/>
</svg>
