<svg viewBox="0 0 202 38" fill="none" xmlns="http://www.w3.org/2000/svg">
<path d="M0.700586 0.749999H9.40059C9.80059 0.749999 10.2173 0.766665 10.6506 0.799998C11.0839 0.799998 11.5173 0.816665 11.9506 0.849998C12.4173 0.88333 12.8839 0.933331 13.3506 0.999999C13.8506 1.03333 14.3339 1.1 14.8006 1.2C15.3006 1.3 15.7839 1.41666 16.2506 1.55C16.7173 1.68333 17.1673 1.85 17.6006 2.05C18.0673 2.25 18.5006 2.48333 18.9006 2.75C19.3006 2.98333 19.6673 3.26666 20.0006 3.6C20.3673 3.9 20.6839 4.25 20.9506 4.65C21.2506 5.05 21.5006 5.5 21.7006 6C21.9006 6.5 22.0506 7.03333 22.1506 7.6C22.2839 8.16667 22.3506 8.8 22.3506 9.5C22.3506 11.8 21.6673 13.7667 20.3006 15.4C18.9673 17.0333 17.0006 18.1667 14.4006 18.8C15.5339 19.2 16.3673 19.7833 16.9006 20.55C17.4339 21.2833 17.9506 22.1167 18.4506 23.05L22.6006 30.65C23.3339 32.0167 24.0506 33.1833 24.7506 34.15C25.4506 35.0833 26.2173 35.9833 27.0506 36.85V37H21.4506L13.5506 22.45C12.9839 21.3833 12.3673 20.6167 11.7006 20.15C11.0673 19.6833 9.98392 19.45 8.45059 19.45H6.30059V28.75C6.30059 30.4833 6.38392 32.05 6.55059 33.45C6.75059 34.8167 7.16725 36 7.80059 37H2.20059V9C2.20059 7.26667 2.11725 5.71666 1.95059 4.35C1.78392 2.98333 1.36725 1.78333 0.700586 0.749999ZM8.55059 3.4H6.30059V16.9H9.20059C11.9006 16.9 14.0673 16.4 15.7006 15.4C17.3673 14.3667 18.2006 12.55 18.2006 9.95C18.2006 9.35 18.1506 8.81667 18.0506 8.35C17.9506 7.85 17.8006 7.4 17.6006 7C17.4006 6.6 17.1673 6.25 16.9006 5.95C16.6339 5.61666 16.3339 5.33333 16.0006 5.1C15.7006 4.83333 15.3506 4.61667 14.9506 4.45C14.5839 4.28333 14.1839 4.13333 13.7506 4C13.3506 3.86667 12.9339 3.76667 12.5006 3.7C12.0673 3.6 11.6173 3.53333 11.1506 3.5C10.7173 3.46667 10.2839 3.45 9.85059 3.45C9.41725 3.41666 8.98392 3.4 8.55059 3.4ZM40.7799 37C41.2132 36.0667 41.5632 35.25 41.8299 34.55C42.1299 33.85 42.3965 33.2 42.6299 32.6L52.9799 4.7C53.1799 4.16666 53.3299 3.68333 53.4299 3.25C53.5632 2.78333 53.6299 2.31667 53.6299 1.85C53.6299 1.68333 53.6132 1.5 53.5799 1.3C53.5465 1.1 53.5132 0.916665 53.4799 0.749999H57.7799L66.8299 27.45C66.9632 27.8167 67.0966 28.2 67.2299 28.6C67.3632 28.9667 67.4965 29.3667 67.6299 29.8C67.7965 30.2333 67.9632 30.6667 68.1299 31.1C68.3299 31.5333 68.5132 31.9667 68.6799 32.4C68.8799 32.8 69.0799 33.2167 69.2799 33.65C69.4799 34.05 69.6799 34.45 69.8799 34.85C70.1132 35.2167 70.3466 35.5667 70.5799 35.9C70.8132 36.2333 71.0466 36.5333 71.2799 36.8V37H65.6299C65.4966 36.4333 65.2966 35.7333 65.0299 34.9C64.7966 34.0667 64.5632 33.2667 64.3299 32.5L61.6799 24.6H48.5299L46.7799 29.35C46.4465 30.1833 46.1632 31 45.9299 31.8C45.7299 32.6 45.6299 33.35 45.6299 34.05C45.6299 34.5833 45.6965 35.1 45.8299 35.6C45.9632 36.1 46.1465 36.5667 46.3799 37H40.7799ZM49.5299 21.95H60.8299L55.4799 5.95L49.5299 21.95ZM86.1693 28.05H86.5193C87.8527 30.05 89.286 31.6667 90.8193 32.9C92.3527 34.1333 94.286 34.75 96.6193 34.75C98.6527 34.75 100.269 34.2167 101.469 33.15C102.669 32.0833 103.269 30.6 103.269 28.7C103.269 26.8 102.753 25.2667 101.719 24.1C100.719 22.9333 99.3693 21.7833 97.6693 20.65L93.3193 17.8C91.3193 16.4667 89.8693 15.0333 88.9693 13.5C88.0693 11.9333 87.6193 10.3 87.6193 8.6C87.6193 5.93333 88.5027 3.9 90.2693 2.5C92.036 1.06666 94.3193 0.349998 97.1193 0.349998C98.4527 0.349998 99.7527 0.516665 101.019 0.849998C102.286 1.18333 103.369 1.61666 104.269 2.15L104.969 7.55H104.619C103.386 5.91667 102.136 4.75 100.869 4.05C99.636 3.35 98.2693 3 96.7693 3C95.2693 3 94.0027 3.4 92.9693 4.2C91.9693 4.96667 91.4693 6.2 91.4693 7.9C91.4693 9.1 91.8193 10.2667 92.5193 11.4C93.2193 12.5333 94.4693 13.7333 96.2693 15L100.269 17.75C102.103 18.9833 103.719 20.35 105.119 21.85C106.553 23.35 107.269 25.35 107.269 27.85C107.269 28.6167 107.186 29.35 107.019 30.05C106.886 30.75 106.669 31.4167 106.369 32.05C106.069 32.6833 105.686 33.2833 105.219 33.85C104.786 34.3833 104.269 34.8667 103.669 35.3C103.069 35.7333 102.386 36.1167 101.619 36.45C100.886 36.75 100.069 36.9833 99.1693 37.15C98.2693 37.3167 97.3027 37.4 96.2693 37.4C94.2693 37.4 92.486 37.1167 90.9193 36.55C89.386 35.95 88.036 35.1333 86.8693 34.1L86.1693 28.05ZM126.81 37V9C126.81 7.26667 126.727 5.71666 126.56 4.35C126.393 2.98333 125.977 1.78333 125.31 0.749999H144.21L144.86 5.45H144.71C143.577 4.61667 142.343 4.08333 141.01 3.85C139.71 3.61667 137.843 3.5 135.41 3.5H130.81V16.65H142.81V20.75C142.01 20.2167 141.06 19.8333 139.96 19.6C138.893 19.3667 137.36 19.25 135.36 19.25H130.81V27.75C130.81 29.1167 130.86 30.3333 130.96 31.4C131.06 32.4667 131.277 33.4167 131.61 34.25H136.71C139.21 34.25 141.16 34.1167 142.56 33.85C143.993 33.5833 145.26 33 146.36 32.1H146.56L145.91 37H126.81ZM169.362 37H164.812L167.162 5.2C167.229 4.1 167.212 3.21667 167.112 2.55C167.045 1.88333 166.945 1.28333 166.812 0.749999H170.512L182.462 29.6L193.212 5.05C193.445 4.48333 193.679 3.8 193.912 3C194.145 2.2 194.262 1.45 194.262 0.749999H197.712L199.612 29.35C199.712 30.9833 199.845 32.4167 200.012 33.65C200.179 34.85 200.545 35.9667 201.112 37H196.112L194.312 9.5L182.162 37H181.312L169.812 9.25L168.262 29.35C168.162 30.8833 168.162 32.2833 168.262 33.55C168.395 34.7833 168.762 35.9333 169.362 37Z" fill="white"/>
</svg>
